<?xml version="1.0" encoding="UTF-8" standalone="no"?>
<!-- Created with Inkscape (http://www.inkscape.org/) -->

<svg
   xmlns:dc="http://purl.org/dc/elements/1.1/"
   xmlns:cc="http://creativecommons.org/ns#"
   xmlns:rdf="http://www.w3.org/1999/02/22-rdf-syntax-ns#"
   xmlns:svg="http://www.w3.org/2000/svg"
   xmlns="http://www.w3.org/2000/svg"
   xmlns:sodipodi="http://sodipodi.sourceforge.net/DTD/sodipodi-0.dtd"
   xmlns:inkscape="http://www.inkscape.org/namespaces/inkscape"
   width="270"
   height="365"
   id="svg4005"
   version="1.1"
   inkscape:version="0.48.4 r9939"
   sodipodi:docname="baronchon-giant-bad-panda-1.svg">
  <defs
     id="defs4007" />
  <sodipodi:namedview
     id="base"
     pagecolor="#000000"
     bordercolor="#666666"
     borderopacity="1.0"
     inkscape:pageopacity="0"
     inkscape:pageshadow="2"
     inkscape:zoom="1.5110775"
     inkscape:cx="144.80221"
     inkscape:cy="198.82308"
     inkscape:document-units="px"
     inkscape:current-layer="g3886"
     showgrid="false"
     fit-margin-top="10"
     fit-margin-left="10"
     fit-margin-right="10"
     fit-margin-bottom="10"
     inkscape:window-width="1678"
     inkscape:window-height="1000"
     inkscape:window-x="0"
     inkscape:window-y="25"
     inkscape:window-maximized="1" />
  <metadata
     id="metadata4010">
    <rdf:RDF>
      <cc:Work
         rdf:about="">
        <dc:format>image/svg+xml</dc:format>
        <dc:type
           rdf:resource="http://purl.org/dc/dcmitype/StillImage" />
        <dc:title></dc:title>
      </cc:Work>
    </rdf:RDF>
  </metadata>
  <g
     inkscape:label="Calque 1"
     inkscape:groupmode="layer"
     id="layer1"
     transform="translate(-4.6694809,-5.7435154)">
    <g
       id="g3886"
       transform="matrix(0.74836169,0,0,0.74836169,138.81111,223.708)">
      <g
         id="g4556"
         transform="matrix(0.60200743,0,0,0.60200743,-218.1557,-327.85871)">
        <path
           d="m 565.32223,426.89881 c 10.00236,11.99558 21.34562,58.27462 26.31056,84.80262 3.69652,19.60608 5.54478,65.23279 3.26164,61.46378 l -26.67296,-69.00179 -2.89924,-77.26461 z"
           style="fill:#ffffff;fill-rule:evenodd"
           id="path1445"
           inkscape:connector-curvature="0" />
        <path
           d="m 416.26531,767.34146 c -4.74749,12.35799 -21.12817,29.68092 -16.81556,36.24044 4.7475,7.2481 29.35475,5.3636 43.99589,5.14614 14.71362,-0.21744 29.35475,-4.31261 43.99589,-6.45079 l 10.36477,-54.36066 -76.3586,-1.95698 c -1.73955,7.13936 -2.57308,14.56865 -5.18239,21.38185 z"
           style="fill:#000000;fill-opacity:1;fill-rule:evenodd;stroke:none"
           id="path1449"
           inkscape:connector-curvature="0" />
        <path
           d="m 356.72228,731.10104 c 24.17237,3.87771 40.08192,6.8132 56.96996,15.5109 10.72717,5.54479 15.18475,25.65823 25.87567,27.18033 16.4894,2.35563 37.11021,-10.36477 55.66532,-15.5109 l -1.30466,-81.541 -49.17827,-1.30465 -88.02802,55.66531 z"
           style="fill:#ffffff;fill-rule:evenodd"
           id="path1447"
           inkscape:connector-curvature="0" />
        <path
           d="m 126.34182,659.88858 c -1.30466,18.98999 -0.54361,38.37862 -3.87773,56.96997 -2.71803,15.03977 -18.22894,32.03654 -14.24249,43.99589 4.20389,12.64791 28.95611,15.90955 43.41604,19.71479 13.59017,3.55157 25.51327,3.87773 40.69801,2.28315 9.42252,-0.97849 18.98999,0 28.48499,0 l -1.30466,-71.17622 -93.17416,-51.78758 z"
           style="fill:#000000;fill-opacity:1;fill-rule:evenodd;stroke:none"
           id="path1451"
           inkscape:connector-curvature="0" />
        <path
           d="m 222.12529,715.55389 c -22.50531,4.27637 -45.88039,-4.16765 -66.89984,-18.1927 -12.64792,-8.40778 -29.93461,-28.73867 -35.80556,-43.0174 C 107.60551,625.49639 100.32118,624.62662 93.000613,588.06002 86.223651,554.17521 80.497662,504.34461 95.863607,473.17784 114.12879,436.17635 128.33504,385.4035 151.239,352.24351 c 14.64113,-21.20066 48.1273,-48.52596 64.32677,-57.73102 5.21863,-2.93547 8.04538,13.04656 7.86418,21.09194 l -1.30466,399.94946 z"
           style="fill:#ffffff;fill-rule:evenodd"
           id="path1453"
           inkscape:connector-curvature="0" />
        <path
           d="m 320.11943,230.40315 c 12.82912,-6.95816 40.90393,-10.54055 56.72104,-10.66419 15.81711,-0.12363 36.32772,2.05493 51.13645,2.52458 14.80873,0.46966 36.24999,10.52979 48.02751,22.57718 11.77753,12.04739 29.58613,49.64534 42.77765,68.27291 15.25722,21.49059 15.62706,53.37236 25.77438,79.42924 l 12.79287,97.81293 -3.22539,59.54304 -297.71519,-7.13936 -1.26842,-49.8306 1.26842,-30.40573 -18.12022,-80.23633 34.97202,-102.92284 c 14.38745,-22.03419 28.62994,-39.10343 46.85888,-48.96083 z"
           style="fill:#ffffff;fill-opacity:1;fill-rule:evenodd"
           id="path1433"
           inkscape:connector-curvature="0"
           sodipodi:nodetypes="czzzcccccccccc" />
        <path
           d="m 210.45587,297.48421 c -4.89246,4.60253 5.21862,12.03182 2.60931,16.8518 -15.94579,29.24603 -48.63466,53.49089 -58.23838,85.41871 -13.66264,45.30055 -15.87331,98.82767 -11.66942,146.23017 2.28315,25.51326 23.99117,47.40249 31.05805,72.48087 7.17561,25.40455 5.10991,53.85329 11.66942,78.96791 1.66707,6.37832 11.92311,9.20506 12.93784,15.54714 2.89924,18.22894 -3.66028,39.13968 -1.30465,58.23839 2.82675,22.72275 -0.9785,60.48528 16.8518,67.29849 40.84297,15.61963 116.58548,10.11109 159.168,0 10.07484,-2.39188 1.99322,-25.76695 -1.26842,-37.54509 -4.05893,-14.53241 -28.2313,-31.13054 -20.72953,-41.42282 21.81675,-29.82588 77.04717,-70.37893 108.72131,-78.93167 11.48822,-3.11668 17.93902,28.81114 20.72953,43.99589 1.95699,10.69093 -3.15291,22.75899 -6.48703,33.66737 -6.16088,20.14968 -29.10108,47.43873 -21.99795,59.50679 7.57425,12.93784 43.74221,14.09753 65.99384,15.54715 24.35357,1.55834 53.30968,2.39187 73.78553,-6.48704 11.45197,-4.9287 17.25044,-22.21539 21.99794,-34.93578 6.88568,-18.33766 7.06689,-28.70242 13.59016,-47.22129 4.27638,-12.1043 16.88805,-45.0831 14.2425,-56.96997 -11.16206,-50.66414 -38.45111,-90.23868 -53.38217,-143.00477 -11.81438,-41.71273 -11.16205,-87.15824 -22.32411,-128.14618 -3.08043,-11.1983 -15.54714,-18.12022 -23.3026,-27.18033 1.30466,44.43077 2.57307,88.86155 3.87773,133.32857 L 264.81653,498.11126 c 2.60931,-12.06807 7.93665,-24.13612 7.79169,-36.24043 -0.39864,-28.8474 -20.22216,-53.52713 -19.42487,-80.23633 0.94225,-32.39896 11.08957,-67.33473 24.60725,-97.08813 9.78492,-21.5993 27.36153,-48.19978 46.424,-56.02772 -36.60284,13.8076 -83.02684,40.26313 -113.75873,68.96556 z"
           style="fill:#000000;fill-opacity:1;fill-rule:evenodd;stroke:none"
           id="path1429"
           inkscape:connector-curvature="0" />
        <path
           d="m 262.60586,496.26301 c -5.94343,31.78286 3.91397,71.86478 10.76341,99.22631 7.03064,28.0501 68.45819,72.69831 107.41666,85.41871 24.46229,7.9729 57.87597,-5.39982 76.9022,-21.01945 14.38746,-11.77814 30.98558,-28.37626 46.75017,-35.76931 9.02387,-4.24013 16.8518,-5.25487 23.44756,-11.7419 12.50295,-12.32175 24.67974,-56.06396 24.28109,-84.5127 -0.43488,-31.05806 -5.1099,-68.45819 -21.85298,-94.08018 -18.1927,-27.86889 -52.33119,-55.70155 -83.42549,-64.10933 -37.47261,-10.14732 -90.1662,-5.43607 -120.06457,15.76459 -43.77844,31.02181 -56.31763,68.71187 -64.21805,110.82326 z"
           style="fill:#ffffff;fill-rule:evenodd"
           id="path1431"
           inkscape:connector-curvature="0" />
        <path
           d="m 519.67192,307.8623 c 34.24432,59.95538 9.54331,78.26551 -4.53895,106.95211 -18.7529,-14.92471 -39.7513,-26.75279 -62.87382,-38.07324 42.80453,-0.58706 70.53743,-30.32236 67.41277,-68.87887 z"
           style="fill:#000000;fill-opacity:1;fill-rule:evenodd;stroke:none"
           id="path1437"
           inkscape:connector-curvature="0"
           sodipodi:nodetypes="cccc" />
        <path
           d="m 426.95624,611.03647 c 2.21067,2.93547 2.10195,9.96612 0.90601,12.35798 -0.32616,0.61609 -21.52682,22.68651 -32.03654,23.33884 -13.40897,0.79729 -33.41369,-13.66264 -38.41487,-20.14968 -2.21066,-2.82676 -5.00118,-4.81997 -1.84826,-8.69771 3.00796,-3.69651 70.52389,-8.00913 71.39366,-6.84943 z"
           style="fill:#000000;fill-opacity:1;fill-rule:evenodd;stroke:none"
           id="path1439"
           inkscape:connector-curvature="0" />
        <path
           d="m 350.52516,509.8894 c 3.18916,-0.94224 9.89364,7.90043 12.35799,14.64114 1.99322,5.43606 -17.97526,45.33678 -25.15086,52.62111 -6.30584,6.41457 -23.04892,0.72482 -25.62199,-2.28314 -3.44284,-3.98645 -7.46553,-19.38864 -3.66029,-25.62199 9.82116,-16.12699 36.13172,-37.61757 42.07515,-39.35712 z"
           style="fill:#000000;fill-opacity:1;fill-rule:evenodd;stroke:none"
           id="path1441"
           inkscape:connector-curvature="0" />
        <path
           d="m 439.31423,510.36054 c -7.82793,1.48585 -16.41692,16.45315 -17.39541,23.77372 -0.39864,3.00796 26.09312,39.93696 37.50885,47.14881 3.26164,2.06571 32.54392,-18.41014 32.03655,-22.86771 -2.06571,-18.33767 -47.65617,-48.92459 -52.14999,-48.05482 z"
           style="fill:#000000;fill-opacity:1;fill-rule:evenodd;stroke:none"
           id="path1443"
           inkscape:connector-curvature="0" />
        <path
           sodipodi:nodetypes="cccc"
           inkscape:connector-curvature="0"
           id="path3048"
           style="fill:#000000;fill-opacity:1;fill-rule:evenodd;stroke:none"
           d="m 295.58562,307.8623 c -34.24432,59.95538 -9.54331,78.26551 4.53895,106.95211 18.7529,-14.92471 39.7513,-26.75279 62.87382,-38.07324 -42.80453,-0.58706 -70.53743,-30.32236 -67.41277,-68.87887 z" />
        <path
           style="fill:#000000;fill-opacity:1;stroke:none"
           d="m 445.71428,226.36218 c 9.39385,3.46329 18.35706,7.8623 25.12999,13.94651 9.21896,-7.08485 31.45178,-24.62486 30.91606,-48.05891 -0.66683,-29.16901 -24.85557,-23.05149 -31.34191,-39.07651 -6.48635,-16.02502 11.67368,-30.33176 40.15845,-35.80094 28.48477,-5.46918 64.17579,8.85726 48.57142,12.85714 l -26.29115,6.13271 c 29.07434,2.02786 54.71697,8.63135 75.71429,21.42857 -13.67778,-19.63936 -24.48183,-43.8767 -31.42857,-74.285715 l -1.42858,32.857145 c -0.73732,16.95822 -2.55586,-13.24419 -64.61747,-10.66353 -33.92478,4.81026 -63.93489,28.88 -55.03589,55.36766 4.03763,11.82448 24.379,14.95109 24.3575,30.93093 -0.0215,15.97984 -18.10613,22.93716 -34.70414,34.36494 z"
           id="path3069"
           inkscape:connector-curvature="0"
           sodipodi:nodetypes="ccszzccccscczc" />
      </g>
    </g>
  </g>
</svg>
